<svg width="512" height="512" viewBox="0 0 512 512" fill="none" xmlns="http://www.w3.org/2000/svg">
  <circle cx="256" cy="256" r="240" stroke="url(#paint0_linear)" stroke-width="32"/>
  <g transform="translate(256 256) scale(1.4) translate(-300 -290)">
    <path d="M185.6 360L236.8 214.4H276.8L328 360H292.8L281.6 324.8H232L220.8 360H185.6ZM241.6 294.4H272L256.8 244.8L241.6 294.4ZM372.267 361.6C361.6 361.6 352.32 358.933 344.427 353.6C336.533 348.267 330.987 341.227 327.787 332.48L358.507 320C360.427 325.547 363.627 329.813 368.107 332.8C372.587 335.787 377.92 337.28 384.107 337.28C390.933 337.28 396.16 335.68 399.787 332.48C403.413 329.28 405.227 325.12 405.227 320C405.227 315.733 403.84 312.213 401.067 309.44C398.293 306.667 394.027 304.32 388.267 302.4L373.867 298.24C362.56 294.827 353.92 289.813 347.947 283.2C341.973 276.587 338.987 268.48 338.987 258.88C338.987 248.853 342.72 240.747 350.187 234.56C357.653 228.373 367.68 225.28 380.267 225.28C390.933 225.28 399.787 227.627 406.827 232.32C413.867 237.013 418.773 243.627 421.547 252.16L392.107 263.36C390.4 258.24 387.627 254.613 383.787 252.48C379.947 250.347 375.467 249.28 370.347 249.28C364.587 249.28 360.213 250.667 357.227 253.44C354.24 256.213 352.747 259.733 352.747 264C352.747 267.84 353.92 270.933 356.267 273.28C358.613 275.627 362.453 277.653 367.787 279.36L383.147 284.16C409.6 292.053 422.827 305.28 422.827 323.84C422.827 334.72 418.773 343.36 410.667 349.76C402.56 356.16 391.733 359.36 378.187 359.36C376.267 359.36 374.347 359.36 372.427 359.36L372.267 361.6Z" fill="url(#paint1_linear)"/>
  </g>
  <defs>
    <linearGradient id="paint0_linear" x1="256" y1="0" x2="256" y2="512" gradientUnits="userSpaceOnUse">
      <stop stop-color="#8B5CF6"/>
      <stop offset="1" stop-color="#06B6D4"/>
    </linearGradient>
    <linearGradient id="paint1_linear" x1="256" y1="0" x2="256" y2="512" gradientUnits="userSpaceOnUse">
      <stop stop-color="#8B5CF6"/>
      <stop offset="1" stop-color="#06B6D4"/>
    </linearGradient>
  </defs>
</svg>
